<?xml version="1.0" encoding="utf-8"?>
<!-- Generator: Adobe Illustrator 25.3.1, SVG Export Plug-In . SVG Version: 6.00 Build 0)  -->
<svg version="1.1" id="Layer_1" xmlns="http://www.w3.org/2000/svg" xmlns:xlink="http://www.w3.org/1999/xlink" x="0px" y="0px"
	 viewBox="0 0 448 447.8" style="enable-background:new 0 0 448 447.8;" xml:space="preserve">
<style type="text/css">
	.st0{display:none;}
	.st1{display:inline;fill:#BF0000;}
	.st2{display:inline;}
	.st3{fill:#FFFFFF;}
	.st4{fill:#FFFFFF;stroke:#FFFFFF;stroke-width:20;stroke-miterlimit:10;}
	.st5{fill:#1D1D1F;}
</style>
<g id="Layer_2_1_" class="st0">
	<rect x="-10.6" y="-6.3" class="st1" width="469.1" height="462.1"/>
</g>
<g id="Layer_1_1_" focusable="false" class="st0">
	<g class="st2">
		<path class="st3" d="M418.5,318.1h-10.9h-378c-10.7,0-19.4,8.7-19.4,19.4v49.7c0,10.7,8.7,19.4,19.4,19.4h378h10.9
			c10.7,0,19.4-8.7,19.4-19.4v-11v-27.7v-11C437.9,326.8,429.2,318.1,418.5,318.1z"/>
		<path class="st3" d="M418.5,41.2h-10.9h-378c-10.7,0-19.4,8.7-19.4,19.4v49.7c0,10.7,8.7,19.4,19.4,19.4h378h10.9
			c10.7,0,19.4-8.7,19.4-19.4v-11V71.6v-11C437.9,49.9,429.2,41.2,418.5,41.2z"/>
		<path class="st3" d="M418.5,179.6H29.6c-10.7,0-19.4,8.7-19.4,19.4v0.1v49.6v0.1c0,10.7,8.7,19.4,19.4,19.4h388.9
			c10.7,0,19.4-8.7,19.4-19.4v-11.1v-27.6V199C437.9,188.3,429.2,179.6,418.5,179.6z"/>
	</g>
</g>
<g id="Layer_4">
	<g>
		<path class="st4" d="M407.6,54.1h-10.3h-356C31.2,54.1,23,60.4,23,68v35.6c0,7.7,8.2,13.9,18.3,13.9h356h10.3
			c10.1,0,18.3-6.2,18.3-13.9v-7.9V75.9V68C425.8,60.4,417.6,54.1,407.6,54.1z"/>
		<path class="st4" d="M407.6,192.1h-10.3h-356c-10.1,0-18.3,6.2-18.3,13.9v35.6c0,7.7,8.2,13.9,18.3,13.9h356h10.3
			c10.1,0,18.3-6.2,18.3-13.9v-7.9v-19.8V206C425.8,198.4,417.6,192.1,407.6,192.1z"/>
		<path class="st4" d="M407.6,331.1h-10.3h-356c-10.1,0-18.3,6.2-18.3,13.9v35.6c0,7.7,8.2,13.9,18.3,13.9h356h10.3
			c10.1,0,18.3-6.2,18.3-13.9v-7.9v-19.8V345C425.8,337.4,417.6,331.1,407.6,331.1z"/>
	</g>
</g>
<g id="Layer_3">
	<g>
		<path class="st5" d="M40.6,386.6h367c5.8,0,10.4-4.7,10.4-10.4v-27.7c0-5.8-4.7-10.4-10.4-10.4h-367c-5.8,0-10.4,4.7-10.4,10.4
			v27.7C30.1,382,34.8,386.6,40.6,386.6z"/>
		<path class="st5" d="M407.6,61.2h-367c-5.8,0-10.4,4.7-10.4,10.4v27.7c0,5.8,4.7,10.4,10.4,10.4h367c5.8,0,10.4-4.7,10.4-10.4
			V71.6C418,65.8,413.3,61.2,407.6,61.2z"/>
		<path class="st5" d="M30.1,210.1v27.7c0,5.8,4.7,10.4,10.4,10.4h367c5.8,0,10.4-4.7,10.4-10.4v-27.7c0-5.8-4.7-10.4-10.4-10.4
			h-367C34.8,199.7,30.1,204.4,30.1,210.1z"/>
	</g>
</g>
</svg>
